<mxfile host="65bd71144e">
    <diagram name="Page-1" id="yEmmgowTZwz1ahBv-lds">
        <mxGraphModel dx="1811" dy="909" grid="0" gridSize="10" guides="1" tooltips="1" connect="1" arrows="1" fold="1" page="1" pageScale="1" pageWidth="850" pageHeight="1100" math="0" shadow="0">
            <root>
                <mxCell id="0"/>
                <mxCell id="1" parent="0"/>
                <mxCell id="oFHqqunSSyDyiDw8DMyg-1" value="" style="rounded=0;whiteSpace=wrap;html=1;" parent="1" vertex="1">
                    <mxGeometry x="80" y="80" width="740" height="650" as="geometry"/>
                </mxCell>
                <mxCell id="oFHqqunSSyDyiDw8DMyg-2" value="" style="rounded=0;whiteSpace=wrap;html=1;" parent="1" vertex="1">
                    <mxGeometry x="120" y="140" width="630" height="180" as="geometry"/>
                </mxCell>
                <mxCell id="oFHqqunSSyDyiDw8DMyg-3" value="Application" style="rounded=0;whiteSpace=wrap;html=1;" parent="1" vertex="1">
                    <mxGeometry x="120" y="110" width="100" height="30" as="geometry"/>
                </mxCell>
                <mxCell id="oFHqqunSSyDyiDw8DMyg-5" value="" style="rounded=0;whiteSpace=wrap;html=1;" parent="1" vertex="1">
                    <mxGeometry x="120" y="400" width="630" height="140" as="geometry"/>
                </mxCell>
                <mxCell id="oFHqqunSSyDyiDw8DMyg-6" value="service" style="rounded=0;whiteSpace=wrap;html=1;" parent="1" vertex="1">
                    <mxGeometry x="120" y="360" width="100" height="40" as="geometry"/>
                </mxCell>
                <mxCell id="oFHqqunSSyDyiDw8DMyg-9" value="infrastructure" style="rounded=0;whiteSpace=wrap;html=1;" parent="1" vertex="1">
                    <mxGeometry x="365" y="240" width="120" height="60" as="geometry"/>
                </mxCell>
                <mxCell id="oFHqqunSSyDyiDw8DMyg-12" value="" style="endArrow=classic;html=1;rounded=0;exitX=0.37;exitY=1.017;exitDx=0;exitDy=0;exitPerimeter=0;entryX=1;entryY=0.5;entryDx=0;entryDy=0;dashed=1;" parent="1" target="oFHqqunSSyDyiDw8DMyg-9" edge="1">
                    <mxGeometry width="50" height="50" relative="1" as="geometry">
                        <mxPoint x="614.3999999999999" y="231.01999999999998" as="sourcePoint"/>
                        <mxPoint x="450" y="320" as="targetPoint"/>
                    </mxGeometry>
                </mxCell>
                <mxCell id="oFHqqunSSyDyiDw8DMyg-13" value="user" style="rounded=0;whiteSpace=wrap;html=1;" parent="1" vertex="1">
                    <mxGeometry x="160" y="440" width="120" height="60" as="geometry"/>
                </mxCell>
                <mxCell id="oFHqqunSSyDyiDw8DMyg-14" value="Messages" style="rounded=0;whiteSpace=wrap;html=1;" parent="1" vertex="1">
                    <mxGeometry x="380" y="440" width="120" height="60" as="geometry"/>
                </mxCell>
                <mxCell id="oFHqqunSSyDyiDw8DMyg-15" value="group" style="rounded=0;whiteSpace=wrap;html=1;" parent="1" vertex="1">
                    <mxGeometry x="600" y="440" width="120" height="60" as="geometry"/>
                </mxCell>
                <mxCell id="oFHqqunSSyDyiDw8DMyg-16" value="" style="rounded=0;whiteSpace=wrap;html=1;fillColor=#dae8fc;strokeColor=#6c8ebf;" parent="1" vertex="1">
                    <mxGeometry x="120" y="630" width="210" height="80" as="geometry"/>
                </mxCell>
                <mxCell id="oFHqqunSSyDyiDw8DMyg-17" value="Database" style="rounded=0;whiteSpace=wrap;html=1;fillColor=#dae8fc;strokeColor=#6c8ebf;" parent="1" vertex="1">
                    <mxGeometry x="120" y="600" width="120" height="30" as="geometry"/>
                </mxCell>
                <mxCell id="oFHqqunSSyDyiDw8DMyg-18" value="" style="endArrow=classic;html=1;rounded=0;exitX=0.5;exitY=1;exitDx=0;exitDy=0;entryX=0.75;entryY=0;entryDx=0;entryDy=0;dashed=1;" parent="1" source="oFHqqunSSyDyiDw8DMyg-13" target="oFHqqunSSyDyiDw8DMyg-16" edge="1">
                    <mxGeometry width="50" height="50" relative="1" as="geometry">
                        <mxPoint x="390" y="520" as="sourcePoint"/>
                        <mxPoint x="440" y="470" as="targetPoint"/>
                        <Array as="points"/>
                    </mxGeometry>
                </mxCell>
                <mxCell id="oFHqqunSSyDyiDw8DMyg-19" value="" style="endArrow=classic;html=1;rounded=0;exitX=0.137;exitY=0.99;exitDx=0;exitDy=0;exitPerimeter=0;dashed=1;" parent="1" source="oFHqqunSSyDyiDw8DMyg-14" edge="1">
                    <mxGeometry width="50" height="50" relative="1" as="geometry">
                        <mxPoint x="390" y="520" as="sourcePoint"/>
                        <mxPoint x="300" y="630" as="targetPoint"/>
                    </mxGeometry>
                </mxCell>
                <mxCell id="oFHqqunSSyDyiDw8DMyg-20" value="" style="endArrow=classic;html=1;rounded=0;exitX=0.01;exitY=0.897;exitDx=0;exitDy=0;exitPerimeter=0;entryX=0.961;entryY=0.007;entryDx=0;entryDy=0;entryPerimeter=0;dashed=1;" parent="1" source="oFHqqunSSyDyiDw8DMyg-15" target="oFHqqunSSyDyiDw8DMyg-16" edge="1">
                    <mxGeometry width="50" height="50" relative="1" as="geometry">
                        <mxPoint x="390" y="520" as="sourcePoint"/>
                        <mxPoint x="440" y="470" as="targetPoint"/>
                    </mxGeometry>
                </mxCell>
                <mxCell id="oFHqqunSSyDyiDw8DMyg-21" value="" style="rounded=0;whiteSpace=wrap;html=1;fillColor=#dae8fc;strokeColor=#6c8ebf;" parent="1" vertex="1">
                    <mxGeometry x="550" y="630" width="190" height="80" as="geometry"/>
                </mxCell>
                <mxCell id="oFHqqunSSyDyiDw8DMyg-22" value="Socket" style="rounded=0;whiteSpace=wrap;html=1;fillColor=#dae8fc;strokeColor=#6c8ebf;" parent="1" vertex="1">
                    <mxGeometry x="550" y="600" width="90" height="30" as="geometry"/>
                </mxCell>
                <mxCell id="oFHqqunSSyDyiDw8DMyg-23" value="" style="endArrow=classic;html=1;rounded=0;dashed=1;" parent="1" source="oFHqqunSSyDyiDw8DMyg-14" target="oFHqqunSSyDyiDw8DMyg-22" edge="1">
                    <mxGeometry width="50" height="50" relative="1" as="geometry">
                        <mxPoint x="530" y="720" as="sourcePoint"/>
                        <mxPoint x="580" y="670" as="targetPoint"/>
                    </mxGeometry>
                </mxCell>
                <mxCell id="oFHqqunSSyDyiDw8DMyg-24" value="" style="endArrow=classic;html=1;rounded=0;dashed=1;" parent="1" source="oFHqqunSSyDyiDw8DMyg-21" target="oFHqqunSSyDyiDw8DMyg-16" edge="1">
                    <mxGeometry width="50" height="50" relative="1" as="geometry">
                        <mxPoint x="530" y="720" as="sourcePoint"/>
                        <mxPoint x="580" y="670" as="targetPoint"/>
                    </mxGeometry>
                </mxCell>
                <mxCell id="oFHqqunSSyDyiDw8DMyg-26" value="presentation" style="rounded=0;whiteSpace=wrap;html=1;" parent="1" vertex="1">
                    <mxGeometry x="200" y="170" width="120" height="60" as="geometry"/>
                </mxCell>
                <mxCell id="oFHqqunSSyDyiDw8DMyg-29" value="domain" style="rounded=0;whiteSpace=wrap;html=1;" parent="1" vertex="1">
                    <mxGeometry x="570" y="170" width="120" height="60" as="geometry"/>
                </mxCell>
                <mxCell id="oFHqqunSSyDyiDw8DMyg-36" value="" style="endArrow=classic;html=1;rounded=0;dashed=1;exitX=1;exitY=0.5;exitDx=0;exitDy=0;entryX=0;entryY=0.5;entryDx=0;entryDy=0;" parent="1" source="oFHqqunSSyDyiDw8DMyg-26" target="oFHqqunSSyDyiDw8DMyg-29" edge="1">
                    <mxGeometry width="50" height="50" relative="1" as="geometry">
                        <mxPoint x="320" y="440" as="sourcePoint"/>
                        <mxPoint x="370" y="390" as="targetPoint"/>
                    </mxGeometry>
                </mxCell>
                <mxCell id="oFHqqunSSyDyiDw8DMyg-47" value="" style="rounded=0;whiteSpace=wrap;html=1;" parent="1" vertex="1">
                    <mxGeometry x="960" y="120" width="883" height="510" as="geometry"/>
                </mxCell>
                <mxCell id="oFHqqunSSyDyiDw8DMyg-49" value="Application" style="rounded=0;whiteSpace=wrap;html=1;" parent="1" vertex="1">
                    <mxGeometry x="960" y="80" width="120" height="40" as="geometry"/>
                </mxCell>
                <mxCell id="oFHqqunSSyDyiDw8DMyg-52" value="" style="rounded=0;whiteSpace=wrap;html=1;" parent="1" vertex="1">
                    <mxGeometry x="1260" y="410" width="280" height="170" as="geometry"/>
                </mxCell>
                <mxCell id="oFHqqunSSyDyiDw8DMyg-58" value="repositories" style="rounded=0;whiteSpace=wrap;html=1;" parent="1" vertex="1">
                    <mxGeometry x="1340" y="475" width="120" height="60" as="geometry"/>
                </mxCell>
                <mxCell id="oFHqqunSSyDyiDw8DMyg-59" value="" style="endArrow=classic;html=1;rounded=0;dashed=1;entryX=0;entryY=0.5;entryDx=0;entryDy=0;" parent="1" source="oFHqqunSSyDyiDw8DMyg-63" target="oFHqqunSSyDyiDw8DMyg-54" edge="1">
                    <mxGeometry width="50" height="50" relative="1" as="geometry">
                        <mxPoint x="1120" y="330" as="sourcePoint"/>
                        <mxPoint x="1150" y="320" as="targetPoint"/>
                    </mxGeometry>
                </mxCell>
                <mxCell id="oFHqqunSSyDyiDw8DMyg-63" value="" style="rounded=0;whiteSpace=wrap;html=1;" parent="1" vertex="1">
                    <mxGeometry x="1000" y="170" width="330" height="140" as="geometry"/>
                </mxCell>
                <mxCell id="oFHqqunSSyDyiDw8DMyg-54" value="PageView" style="rounded=1;whiteSpace=wrap;html=1;flipH=1;flipV=0;" parent="1" vertex="1">
                    <mxGeometry x="1190" y="200" width="100" height="60" as="geometry"/>
                </mxCell>
                <mxCell id="oFHqqunSSyDyiDw8DMyg-64" value="Widgets" style="rounded=1;whiteSpace=wrap;html=1;flipH=1;flipV=1;direction=west;" parent="1" vertex="1">
                    <mxGeometry x="1020" y="200" width="110" height="60" as="geometry"/>
                </mxCell>
                <mxCell id="oFHqqunSSyDyiDw8DMyg-65" value="" style="rounded=0;whiteSpace=wrap;html=1;" parent="1" vertex="1">
                    <mxGeometry x="1460" y="180" width="370" height="130" as="geometry"/>
                </mxCell>
                <mxCell id="oFHqqunSSyDyiDw8DMyg-66" value="model&amp;nbsp; &amp;nbsp; &amp;nbsp; &amp;nbsp;&amp;nbsp;" style="rounded=1;whiteSpace=wrap;html=1;" parent="1" vertex="1">
                    <mxGeometry x="1690" y="210" width="120" height="60" as="geometry"/>
                </mxCell>
                <mxCell id="oFHqqunSSyDyiDw8DMyg-67" value="interfface&amp;nbsp;" style="rounded=1;whiteSpace=wrap;html=1;" parent="1" vertex="1">
                    <mxGeometry x="1500" y="210" width="120" height="60" as="geometry"/>
                </mxCell>
                <mxCell id="oFHqqunSSyDyiDw8DMyg-69" value="presentation" style="rounded=0;whiteSpace=wrap;html=1;strokeColor=default;fontFamily=Helvetica;fontSize=12;fontColor=default;fillColor=default;" parent="1" vertex="1">
                    <mxGeometry x="1000" y="140" width="80" height="30" as="geometry"/>
                </mxCell>
                <mxCell id="oFHqqunSSyDyiDw8DMyg-70" value="domain" style="rounded=0;whiteSpace=wrap;html=1;strokeColor=default;fontFamily=Helvetica;fontSize=12;fontColor=default;fillColor=default;" parent="1" vertex="1">
                    <mxGeometry x="1460" y="150" width="80" height="30" as="geometry"/>
                </mxCell>
                <mxCell id="oFHqqunSSyDyiDw8DMyg-72" value="" style="endArrow=classic;html=1;rounded=0;dashed=1;fontFamily=Helvetica;fontSize=12;fontColor=default;exitX=0;exitY=0.5;exitDx=0;exitDy=0;entryX=0;entryY=0.5;entryDx=0;entryDy=0;" parent="1" source="oFHqqunSSyDyiDw8DMyg-64" target="oFHqqunSSyDyiDw8DMyg-54" edge="1">
                    <mxGeometry width="50" height="50" relative="1" as="geometry">
                        <mxPoint x="1260" y="380" as="sourcePoint"/>
                        <mxPoint x="1310" y="330" as="targetPoint"/>
                    </mxGeometry>
                </mxCell>
                <mxCell id="oFHqqunSSyDyiDw8DMyg-73" value="" style="endArrow=classic;html=1;rounded=0;dashed=1;fontFamily=Helvetica;fontSize=12;fontColor=default;exitX=1;exitY=0.5;exitDx=0;exitDy=0;entryX=0;entryY=0.5;entryDx=0;entryDy=0;" parent="1" source="oFHqqunSSyDyiDw8DMyg-54" target="oFHqqunSSyDyiDw8DMyg-67" edge="1">
                    <mxGeometry width="50" height="50" relative="1" as="geometry">
                        <mxPoint x="1260" y="380" as="sourcePoint"/>
                        <mxPoint x="1310" y="330" as="targetPoint"/>
                    </mxGeometry>
                </mxCell>
                <mxCell id="oFHqqunSSyDyiDw8DMyg-74" value="" style="endArrow=classic;html=1;rounded=0;dashed=1;fontFamily=Helvetica;fontSize=12;fontColor=default;exitX=0.308;exitY=1.036;exitDx=0;exitDy=0;exitPerimeter=0;" parent="1" source="oFHqqunSSyDyiDw8DMyg-67" target="oFHqqunSSyDyiDw8DMyg-58" edge="1">
                    <mxGeometry width="50" height="50" relative="1" as="geometry">
                        <mxPoint x="1510" y="420" as="sourcePoint"/>
                        <mxPoint x="1560" y="370" as="targetPoint"/>
                    </mxGeometry>
                </mxCell>
                <mxCell id="oFHqqunSSyDyiDw8DMyg-77" value="" style="endArrow=classic;html=1;rounded=0;dashed=1;fontFamily=Helvetica;fontSize=12;fontColor=default;exitX=0;exitY=0.5;exitDx=0;exitDy=0;entryX=1;entryY=0.5;entryDx=0;entryDy=0;" parent="1" source="oFHqqunSSyDyiDw8DMyg-66" target="oFHqqunSSyDyiDw8DMyg-67" edge="1">
                    <mxGeometry width="50" height="50" relative="1" as="geometry">
                        <mxPoint x="1510" y="420" as="sourcePoint"/>
                        <mxPoint x="1630" y="240" as="targetPoint"/>
                    </mxGeometry>
                </mxCell>
                <mxCell id="oFHqqunSSyDyiDw8DMyg-78" value="infrastructure" style="rounded=0;whiteSpace=wrap;html=1;strokeColor=default;fontFamily=Helvetica;fontSize=12;fontColor=default;fillColor=default;" parent="1" vertex="1">
                    <mxGeometry x="1260" y="380" width="90" height="30" as="geometry"/>
                </mxCell>
                <mxCell id="oFHqqunSSyDyiDw8DMyg-79" value="" style="group" parent="1" vertex="1" connectable="0">
                    <mxGeometry x="120" y="760" width="630" height="180" as="geometry"/>
                </mxCell>
                <mxCell id="oFHqqunSSyDyiDw8DMyg-30" value="" style="rounded=0;whiteSpace=wrap;html=1;" parent="oFHqqunSSyDyiDw8DMyg-79" vertex="1">
                    <mxGeometry width="630" height="180" as="geometry"/>
                </mxCell>
                <mxCell id="oFHqqunSSyDyiDw8DMyg-33" value="Package" style="text;html=1;strokeColor=none;fillColor=none;align=center;verticalAlign=middle;whiteSpace=wrap;rounded=0;" parent="oFHqqunSSyDyiDw8DMyg-79" vertex="1">
                    <mxGeometry x="160" y="50" width="60" height="30" as="geometry"/>
                </mxCell>
                <mxCell id="oFHqqunSSyDyiDw8DMyg-37" value="" style="rounded=0;whiteSpace=wrap;html=1;" parent="oFHqqunSSyDyiDw8DMyg-79" vertex="1">
                    <mxGeometry x="267" y="30" width="93" height="50" as="geometry"/>
                </mxCell>
                <mxCell id="oFHqqunSSyDyiDw8DMyg-38" value="Classes" style="text;html=1;strokeColor=none;fillColor=none;align=center;verticalAlign=middle;whiteSpace=wrap;rounded=0;" parent="oFHqqunSSyDyiDw8DMyg-79" vertex="1">
                    <mxGeometry x="375" y="40" width="60" height="30" as="geometry"/>
                </mxCell>
                <mxCell id="oFHqqunSSyDyiDw8DMyg-39" value="" style="group" parent="oFHqqunSSyDyiDw8DMyg-79" vertex="1" connectable="0">
                    <mxGeometry x="40" y="10" width="110" height="70" as="geometry"/>
                </mxCell>
                <mxCell id="oFHqqunSSyDyiDw8DMyg-31" value="" style="rounded=0;whiteSpace=wrap;html=1;" parent="oFHqqunSSyDyiDw8DMyg-39" vertex="1">
                    <mxGeometry y="20" width="110" height="50" as="geometry"/>
                </mxCell>
                <mxCell id="oFHqqunSSyDyiDw8DMyg-32" value="" style="rounded=0;whiteSpace=wrap;html=1;" parent="oFHqqunSSyDyiDw8DMyg-39" vertex="1">
                    <mxGeometry width="60" height="20" as="geometry"/>
                </mxCell>
                <mxCell id="oFHqqunSSyDyiDw8DMyg-41" value="" style="group" parent="oFHqqunSSyDyiDw8DMyg-79" vertex="1" connectable="0">
                    <mxGeometry x="40" y="100" width="110" height="70" as="geometry"/>
                </mxCell>
                <mxCell id="oFHqqunSSyDyiDw8DMyg-42" value="" style="rounded=0;whiteSpace=wrap;html=1;fillColor=#dae8fc;strokeColor=#6c8ebf;" parent="oFHqqunSSyDyiDw8DMyg-41" vertex="1">
                    <mxGeometry y="20" width="110" height="50" as="geometry"/>
                </mxCell>
                <mxCell id="oFHqqunSSyDyiDw8DMyg-43" value="" style="rounded=0;whiteSpace=wrap;html=1;fillColor=#dae8fc;strokeColor=#6c8ebf;" parent="oFHqqunSSyDyiDw8DMyg-41" vertex="1">
                    <mxGeometry width="60" height="20" as="geometry"/>
                </mxCell>
                <mxCell id="oFHqqunSSyDyiDw8DMyg-44" value="third party package" style="text;html=1;strokeColor=none;fillColor=none;align=center;verticalAlign=middle;whiteSpace=wrap;rounded=0;" parent="oFHqqunSSyDyiDw8DMyg-79" vertex="1">
                    <mxGeometry x="170" y="130" width="60" height="30" as="geometry"/>
                </mxCell>
                <mxCell id="oFHqqunSSyDyiDw8DMyg-45" value="" style="endArrow=classic;html=1;rounded=0;dashed=1;entryX=0.571;entryY=0.833;entryDx=0;entryDy=0;entryPerimeter=0;" parent="oFHqqunSSyDyiDw8DMyg-79" target="oFHqqunSSyDyiDw8DMyg-30" edge="1">
                    <mxGeometry width="50" height="50" relative="1" as="geometry">
                        <mxPoint x="280" y="150" as="sourcePoint"/>
                        <mxPoint x="330" y="100" as="targetPoint"/>
                    </mxGeometry>
                </mxCell>
                <mxCell id="oFHqqunSSyDyiDw8DMyg-46" value="A use B" style="text;html=1;strokeColor=none;fillColor=none;align=center;verticalAlign=middle;whiteSpace=wrap;rounded=0;" parent="oFHqqunSSyDyiDw8DMyg-79" vertex="1">
                    <mxGeometry x="390" y="130" width="60" height="30" as="geometry"/>
                </mxCell>
                <mxCell id="oFHqqunSSyDyiDw8DMyg-48" value="Legend&amp;nbsp; &amp;nbsp;&amp;nbsp;" style="rounded=0;whiteSpace=wrap;html=1;" parent="oFHqqunSSyDyiDw8DMyg-79" vertex="1">
                    <mxGeometry x="510" width="120" height="40" as="geometry"/>
                </mxCell>
                <mxCell id="oFHqqunSSyDyiDw8DMyg-81" value="" style="group" parent="1" vertex="1" connectable="0">
                    <mxGeometry x="1060" y="660" width="630" height="180" as="geometry"/>
                </mxCell>
                <mxCell id="oFHqqunSSyDyiDw8DMyg-82" value="" style="rounded=0;whiteSpace=wrap;html=1;" parent="oFHqqunSSyDyiDw8DMyg-81" vertex="1">
                    <mxGeometry width="630" height="140" as="geometry"/>
                </mxCell>
                <mxCell id="oFHqqunSSyDyiDw8DMyg-83" value="Package" style="text;html=1;strokeColor=none;fillColor=none;align=center;verticalAlign=middle;whiteSpace=wrap;rounded=0;" parent="oFHqqunSSyDyiDw8DMyg-81" vertex="1">
                    <mxGeometry x="140" y="90" width="60" height="30" as="geometry"/>
                </mxCell>
                <mxCell id="oFHqqunSSyDyiDw8DMyg-84" value="" style="rounded=0;whiteSpace=wrap;html=1;" parent="oFHqqunSSyDyiDw8DMyg-81" vertex="1">
                    <mxGeometry x="247" y="70" width="93" height="50" as="geometry"/>
                </mxCell>
                <mxCell id="oFHqqunSSyDyiDw8DMyg-85" value="Classes" style="text;html=1;strokeColor=none;fillColor=none;align=center;verticalAlign=middle;whiteSpace=wrap;rounded=0;" parent="oFHqqunSSyDyiDw8DMyg-81" vertex="1">
                    <mxGeometry x="355" y="80" width="60" height="30" as="geometry"/>
                </mxCell>
                <mxCell id="oFHqqunSSyDyiDw8DMyg-86" value="" style="group" parent="oFHqqunSSyDyiDw8DMyg-81" vertex="1" connectable="0">
                    <mxGeometry x="20" y="50" width="110" height="70" as="geometry"/>
                </mxCell>
                <mxCell id="oFHqqunSSyDyiDw8DMyg-87" value="" style="rounded=0;whiteSpace=wrap;html=1;" parent="oFHqqunSSyDyiDw8DMyg-86" vertex="1">
                    <mxGeometry y="20" width="110" height="50" as="geometry"/>
                </mxCell>
                <mxCell id="oFHqqunSSyDyiDw8DMyg-88" value="" style="rounded=0;whiteSpace=wrap;html=1;" parent="oFHqqunSSyDyiDw8DMyg-86" vertex="1">
                    <mxGeometry width="60" height="20" as="geometry"/>
                </mxCell>
                <mxCell id="oFHqqunSSyDyiDw8DMyg-93" value="" style="endArrow=classic;html=1;rounded=0;dashed=1;entryX=0.571;entryY=0.833;entryDx=0;entryDy=0;entryPerimeter=0;" parent="oFHqqunSSyDyiDw8DMyg-81" edge="1">
                    <mxGeometry width="50" height="50" relative="1" as="geometry">
                        <mxPoint x="439" y="100" as="sourcePoint"/>
                        <mxPoint x="518.73" y="99.94000000000005" as="targetPoint"/>
                    </mxGeometry>
                </mxCell>
                <mxCell id="oFHqqunSSyDyiDw8DMyg-94" value="A use B" style="text;html=1;strokeColor=none;fillColor=none;align=center;verticalAlign=middle;whiteSpace=wrap;rounded=0;" parent="oFHqqunSSyDyiDw8DMyg-81" vertex="1">
                    <mxGeometry x="549" y="80" width="60" height="30" as="geometry"/>
                </mxCell>
                <mxCell id="oFHqqunSSyDyiDw8DMyg-95" value="Legend&amp;nbsp; &amp;nbsp;&amp;nbsp;" style="rounded=0;whiteSpace=wrap;html=1;" parent="oFHqqunSSyDyiDw8DMyg-81" vertex="1">
                    <mxGeometry x="510" width="120" height="40" as="geometry"/>
                </mxCell>
            </root>
        </mxGraphModel>
    </diagram>
</mxfile>